<svg width="87" height="16" viewBox="0 0 87 16" fill="none" xmlns="http://www.w3.org/2000/svg">
<path d="M48.6258 5.14422C47.707 4.76017 46.7464 4.67932 45.7649 4.88145C44.9191 5.06337 44.2195 5.47773 43.687 6.14476C43.6766 6.15487 43.6661 6.17508 43.6348 6.16498C43.6348 6.14476 43.6348 6.12455 43.6348 6.10434C43.6348 4.10325 43.6348 2.10216 43.6348 0.0909587C43.6348 0.0606391 43.6348 0.0303196 43.6453 0C43.6035 0 43.5722 0 43.5304 0C43.5095 0.0101065 43.4886 0.020213 43.4678 0.020213C42.6011 0.131385 41.724 0.242556 40.8574 0.343622C40.7634 0.353728 40.7634 0.394154 40.7634 0.4649C40.7634 5.18464 40.7634 9.90439 40.7634 14.6342C40.7634 14.7151 40.7843 14.7454 40.8783 14.7454C41.651 14.7454 42.4236 14.7454 43.2067 14.7454C43.3111 14.7454 43.332 14.7151 43.3425 14.6241C43.3529 14.2098 43.3633 13.7954 43.3738 13.3911C43.3738 13.3507 43.3633 13.3204 43.3947 13.28C43.4051 13.3002 43.426 13.3204 43.4364 13.3305C43.6557 13.664 43.9167 13.9571 44.2404 14.1997C44.8147 14.6342 45.4725 14.8768 46.193 14.9576C46.997 15.0486 47.7801 14.9678 48.5319 14.6646C49.6909 14.1997 50.4948 13.3911 51.0065 12.2996C51.3824 11.4911 51.5285 10.6422 51.5181 9.7629C51.4972 8.81288 51.2884 7.9033 50.8081 7.06446C50.2756 6.1953 49.5656 5.53837 48.6258 5.14422ZM48.2708 11.2587C47.8323 12.1581 47.0805 12.6129 46.0468 12.6028C44.9191 12.5927 44.0525 11.9358 43.7288 10.8847C43.6244 10.5613 43.5826 10.2278 43.5826 9.88418C43.5931 9.18682 43.7497 8.5299 44.2195 7.97404C44.7834 7.31712 45.5352 7.07456 46.3914 7.17563C47.4459 7.29691 48.1038 7.9033 48.4066 8.86342C48.678 9.67194 48.6467 10.4805 48.2708 11.2587Z" fill="#0766FE"/>
<path d="M86.4863 14.6747C85.5988 13.6842 84.7113 12.6938 83.8238 11.7135C83.1973 11.0161 82.5708 10.3188 81.9339 9.6113C81.8921 9.56077 81.8608 9.53045 81.9234 9.4597C83.1242 8.10543 84.3249 6.76126 85.5153 5.40699C85.6301 5.28571 85.7345 5.15432 85.8494 5.03305C85.8285 5.02294 85.8181 5.02294 85.8181 5.02294C84.7844 5.02294 83.7611 5.02294 82.7274 5.02294C82.6543 5.02294 82.623 5.05326 82.5917 5.09369C81.5475 6.28625 80.5034 7.47882 79.4592 8.67139C79.3131 8.8331 79.1773 8.9948 79.0311 9.15651C78.9998 9.10597 79.0103 9.05544 79.0103 9.01501C79.0103 6.0538 79.0103 3.1027 79.0103 0.141491C79.0103 0.0909587 79.0103 0.0505326 78.9998 0C78.9685 0 78.9372 0 78.9058 0C78.885 0.0101065 78.8745 0.020213 78.8536 0.020213C77.9765 0.131385 77.0995 0.242556 76.2328 0.353728C76.1389 0.363835 76.1284 0.394154 76.1284 0.475006C76.1284 5.19475 76.1284 9.91449 76.1284 14.6241C76.1284 14.7151 76.1493 14.7454 76.2433 14.7454C77.1204 14.7454 77.9974 14.7454 78.8745 14.7454C78.9789 14.7454 79.0103 14.7252 79.0103 14.614C79.0103 13.1991 79.0103 11.7842 79.0103 10.3693C79.0103 10.3289 79.0103 10.2884 79.0103 10.2581C79.0207 10.2581 79.0311 10.248 79.0416 10.248C79.0625 10.2682 79.0729 10.2985 79.0938 10.3188C80.3781 11.7741 81.6728 13.2193 82.9571 14.6747C83.0093 14.7252 83.0511 14.7555 83.1346 14.7555C84.231 14.7555 85.3378 14.7555 86.4341 14.7555C86.4654 14.7555 86.4968 14.7656 86.5281 14.7353C86.5072 14.705 86.4968 14.6949 86.4863 14.6747Z" fill="#0766FE"/>
<path d="M17.9697 5.0126C17.1866 5.0126 16.4035 5.0126 15.61 5.0126C15.5369 5.0126 15.5056 5.03281 15.5056 5.10356C15.5056 5.34611 15.4951 5.58867 15.4847 5.83123C15.4742 6.05357 15.4638 6.26581 15.4638 6.48815C15.4534 6.48815 15.4429 6.47804 15.4429 6.47804C15.4325 6.45783 15.4116 6.43762 15.4011 6.42751C14.9939 5.80091 14.4405 5.35622 13.7305 5.07324C12.9892 4.78015 12.227 4.7094 11.4334 4.81047C9.98205 5.00249 8.88569 5.72006 8.12347 6.91262C7.64316 7.66051 7.41345 8.47913 7.34036 9.34829C7.25683 10.3994 7.40301 11.4201 7.87287 12.3802C8.39495 13.4414 9.19894 14.2297 10.3371 14.6643C11.2141 15.0079 12.1225 15.0585 13.0518 14.8766C13.908 14.7047 14.6285 14.3005 15.1714 13.6234C15.2654 13.5122 15.3489 13.3808 15.4534 13.2494C15.4534 13.2999 15.4638 13.3202 15.4638 13.3505C15.4742 13.7648 15.4951 14.1792 15.5056 14.5936C15.5056 14.7047 15.5369 14.7351 15.6517 14.725C16.4244 14.7149 17.1866 14.725 17.9593 14.725C18.0428 14.725 18.0637 14.7047 18.0637 14.6239C18.0637 11.4505 18.0637 8.277 18.0637 5.10356C18.0742 5.03281 18.0533 5.0126 17.9697 5.0126ZM15.0148 11.0967C14.6285 12.0973 13.7305 12.643 12.5924 12.6026C11.6318 12.5723 10.7965 11.9659 10.4624 11.0866C10.3057 10.6824 10.2431 10.2781 10.2431 9.77277C10.2431 9.27755 10.3684 8.70148 10.7234 8.19615C11.2141 7.4887 11.9137 7.15518 12.7908 7.16529C13.7932 7.17539 14.6285 7.72115 14.9939 8.63073C15.3281 9.43925 15.3281 10.268 15.0148 11.0967Z" fill="#0766FE"/>
<path d="M60.101 5.19482C58.7436 4.65917 57.3445 4.62885 55.9453 5.03311C54.7132 5.38684 53.7422 6.0943 53.0844 7.17569C52.5727 8.00443 52.3743 8.91402 52.3639 9.90445C52.3743 10.3491 52.4161 10.814 52.531 11.2688C52.9486 12.8353 53.9092 13.9471 55.4546 14.5636C56.9059 15.1396 58.399 15.1497 59.8817 14.6545C61.2704 14.1795 62.2519 13.28 62.8053 11.946C63.2543 10.8545 63.317 9.73264 63.0455 8.60071C62.6696 6.97356 61.6881 5.82142 60.101 5.19482ZM59.7669 11.6125C59.2866 12.2795 58.6079 12.6029 57.7726 12.5928C56.5927 12.5827 55.6947 11.8954 55.4024 10.7534C55.1935 9.96509 55.2353 9.17679 55.6216 8.43901C56.081 7.53953 56.8642 7.11506 57.8874 7.15548C59.0777 7.19591 59.9653 7.964 60.2054 9.13636C60.2576 9.37892 60.2889 9.63158 60.2785 9.78318C60.2681 10.5108 60.1428 11.097 59.7669 11.6125Z" fill="#0766FE"/>
<path d="M72.4532 5.49818C71.5343 4.97264 70.5319 4.77051 69.6026 4.77051C68.642 4.77051 67.9425 4.89179 67.2011 5.18487C65.9273 5.68009 65.0084 6.53915 64.4863 7.77214C63.9956 8.92429 63.9434 10.1067 64.2566 11.3094C64.6221 12.7041 65.4678 13.735 66.7939 14.3919C67.5039 14.7456 68.2661 14.9175 69.0597 14.968C70.0516 15.0286 71.0122 14.9073 71.9206 14.5132C73.1632 13.9877 74.0403 13.1084 74.531 11.8855C74.9382 10.8647 75.0113 9.80355 74.792 8.73226C74.4997 7.32746 73.727 6.23595 72.4532 5.49818ZM71.409 11.6935C70.9287 12.31 70.2709 12.593 69.4669 12.593C68.3079 12.593 67.4308 11.8956 67.1176 10.8344C66.9088 10.1169 66.9296 9.4094 67.1907 8.71205C67.5561 7.7115 68.4854 7.10511 69.5818 7.15565C70.7094 7.20618 71.5552 7.88332 71.8476 8.95461C71.9311 9.2578 71.9729 9.5711 71.9729 9.88441C71.9729 10.5413 71.8267 11.1679 71.409 11.6935Z" fill="#0766FE"/>
<path d="M36.1483 5.03313C34.958 4.6693 33.7676 4.6693 32.5773 5.03313C31.5332 5.34643 30.6874 5.94272 30.0923 6.82198C29.163 8.18636 28.9855 9.68213 29.3509 11.2486C29.6537 12.5524 30.4159 13.563 31.6167 14.2402C32.4938 14.7354 33.4544 14.9577 34.4568 14.9881C35.4592 15.0184 36.4406 14.8668 37.3699 14.5232C37.9755 14.3008 38.5394 13.9976 39.0301 13.5731C39.0719 13.5327 39.1032 13.5125 39.0614 13.4519C38.7378 12.9162 38.4245 12.3705 38.1113 11.8348C38.0695 11.7641 38.0486 11.754 37.9755 11.8045C36.8792 12.5221 35.6784 12.8758 34.3524 12.6939C33.6841 12.6029 33.0889 12.3604 32.6086 11.8853C32.3163 11.6024 32.1283 11.2587 31.9926 10.8646C32.0448 10.8646 32.097 10.8646 32.1388 10.8646C34.4046 10.8646 36.6599 10.8646 38.9257 10.8646C38.957 10.8646 38.9779 10.8646 39.0092 10.8646C39.0719 10.8747 39.0928 10.8444 39.1032 10.7837C39.2912 9.69223 39.2181 8.62094 38.8317 7.57997C38.3514 6.31666 37.4744 5.4475 36.1483 5.03313ZM36.4093 8.94435C35.6784 8.94435 34.9475 8.94435 34.2166 8.94435C33.4857 8.94435 32.7653 8.94435 32.0344 8.94435C31.9404 8.94435 31.9091 8.92414 31.9404 8.83318C32.0761 8.30764 32.3058 7.83264 32.7444 7.4688C33.1725 7.11507 33.6841 6.96347 34.2375 6.94326C34.8013 6.92305 35.3443 7.03422 35.8037 7.38795C36.2945 7.772 36.4929 8.27732 36.5137 8.87361C36.5137 8.95446 36.472 8.94435 36.4093 8.94435Z" fill="#0766FE"/>
<path d="M7.11062 0.353871C6.80782 0.303338 6.50502 0.262912 6.20221 0.232592C5.48175 0.161847 4.7613 0.18206 4.05128 0.353871C3.3517 0.525682 2.7461 0.84909 2.318 1.43527C1.92122 1.98102 1.75416 2.60762 1.68107 3.26455C1.61842 3.8103 1.63931 4.35605 1.63931 4.91191C1.63931 5.01298 1.61842 5.0433 1.51401 5.0433C1.04414 5.03319 0.574279 5.0433 0.104414 5.0433C0.0208829 5.0433 0 5.06351 0 5.14436C0.0104414 5.85182 0.0104414 6.56938 0.0104414 7.28694C0.0104414 7.3779 0.0417658 7.38801 0.125297 7.38801C0.58472 7.38801 1.04414 7.38801 1.50357 7.38801C1.62886 7.38801 1.64975 7.42843 1.64975 7.5295C1.64975 9.89442 1.64975 12.2492 1.64975 14.6142C1.64975 14.7253 1.68107 14.7456 1.78549 14.7456C2.66257 14.7456 3.52921 14.7456 4.40629 14.7456C4.5107 14.7456 4.53158 14.7253 4.53158 14.6243C4.53158 13.4418 4.53158 12.2593 4.53158 11.0769C4.53158 9.88432 4.53158 8.69175 4.53158 7.49918C4.53158 7.40822 4.55247 7.38801 4.64644 7.38801C5.28337 7.38801 5.93074 7.38801 6.56766 7.38801C6.66164 7.38801 6.69296 7.35769 6.7034 7.27684C6.83914 6.55927 6.97488 5.84171 7.11062 5.13425C7.12106 5.06351 7.11062 5.0433 7.02709 5.0433C6.75561 5.0433 6.48413 5.0433 6.21266 5.0433C5.68014 5.0433 5.15807 5.0433 4.62556 5.0433C4.58379 5.0433 4.52114 5.06351 4.52114 4.98266C4.53158 4.53797 4.50026 4.08318 4.57335 3.63849C4.66732 3.07252 5.00145 2.70869 5.57573 2.5773C6.08736 2.46613 6.60943 2.49645 7.12106 2.52677C7.22547 2.52677 7.24636 2.51667 7.24636 2.4156C7.23592 1.77889 7.23592 1.15229 7.24636 0.515575C7.24636 0.394297 7.20459 0.374084 7.11062 0.353871Z" fill="#0766FE"/>
<path d="M27.5549 11.7031C27.5236 11.6526 27.5027 11.6526 27.4505 11.6829C27.367 11.7537 27.273 11.8143 27.179 11.8648C26.3542 12.3904 25.4562 12.6734 24.4538 12.5218C23.5872 12.3904 22.9502 11.9558 22.5744 11.1877C22.2298 10.4802 22.1985 9.74247 22.4073 9.0047C22.6892 7.98394 23.5767 7.27648 24.6522 7.20574C25.5397 7.1451 26.3542 7.37755 27.1059 7.83234C27.1686 7.87277 27.2312 7.91319 27.2939 7.95362C27.3356 7.89298 27.3774 7.83234 27.4087 7.7717C27.7324 7.23606 28.0561 6.70041 28.3902 6.16476C28.432 6.09402 28.4216 6.0637 28.3589 6.02327C28.2754 5.96263 28.2023 5.902 28.1292 5.84136C27.4192 5.33603 26.6152 5.02273 25.7485 4.87113C24.6313 4.67911 23.535 4.74985 22.4908 5.16422C21.1126 5.69986 20.1519 6.64988 19.6508 8.00415C19.2644 9.04512 19.2227 10.1063 19.4732 11.1776C19.7656 12.4005 20.4339 13.3909 21.5093 14.0984C22.4491 14.725 23.5036 14.9776 24.4747 14.9878C25.3413 14.9878 26.0305 14.8766 26.6987 14.634C27.3983 14.3814 28.0248 14.0276 28.5782 13.5324C28.6199 13.5021 28.6408 13.4718 28.6095 13.4212C28.2545 12.8452 27.9099 12.2691 27.5549 11.7031Z" fill="#0766FE"/>
</svg>
