<svg width="23" height="14" viewBox="0 0 23 14" fill="none" xmlns="http://www.w3.org/2000/svg">
<path d="M11.2374 0C6.1295 0 1.76734 2.90267 0 7C1.76734 11.0973 6.1295 14 11.2374 14C16.3453 14 20.7075 11.0973 22.4748 7C20.7075 2.90267 16.3453 0 11.2374 0ZM11.2374 11.6667C8.41784 11.6667 6.1295 9.576 6.1295 7C6.1295 4.424 8.41784 2.33333 11.2374 2.33333C14.057 2.33333 16.3453 4.424 16.3453 7C16.3453 9.576 14.057 11.6667 11.2374 11.6667ZM11.2374 4.2C9.54158 4.2 8.17266 5.45067 8.17266 7C8.17266 8.54933 9.54158 9.8 11.2374 9.8C12.9332 9.8 14.3022 8.54933 14.3022 7C14.3022 5.45067 12.9332 4.2 11.2374 4.2Z" fill="#BFC0C2"/>
</svg>
