<svg width="21" height="20" viewBox="0 0 21 20" fill="none" xmlns="http://www.w3.org/2000/svg">
<path d="M15.7325 6.76481C16.2397 6.25791 16.7368 5.74599 17.2541 5.24411C17.7863 4.72717 18.4391 4.53144 19.117 4.81751C19.9305 5.15879 20.5582 5.7761 20.8846 6.59919C21.1608 7.29179 20.9549 7.94424 20.4226 8.47623C19.4736 9.42981 18.5195 10.3784 17.5704 11.3269C16.9929 11.9041 16.4054 12.4812 15.838 13.0685C15.7476 13.1638 15.6773 13.3244 15.6773 13.4549C15.6673 14.7749 15.6823 16.0948 15.6673 17.4097C15.6522 18.6594 14.8186 19.6682 13.5984 19.9292C13.3825 19.9743 13.1515 19.9894 12.9255 19.9894C9.541 19.9944 6.16152 19.9944 2.77701 19.9894C1.50657 19.9894 0.527374 19.342 0.165824 18.2328C0.0603722 17.9066 0.0252216 17.5452 0.0202001 17.1989C0.010157 13.736 0.0252216 10.268 0.000114003 6.80496C-0.00490752 6.3081 0.155781 5.9869 0.517331 5.67071C2.57113 3.86895 4.59481 2.0421 6.63856 0.230308C6.77415 0.109856 6.99007 0.00947999 7.17085 0.00446117C9.08404 -0.00557647 10.9972 0.00446117 12.9104 0.00446117C13.729 0.00446117 14.437 0.245365 14.9994 0.857661C15.4614 1.36456 15.6823 1.97184 15.6773 2.66444C15.6723 3.9342 15.6773 5.20396 15.6773 6.4687C15.6773 6.55904 15.6773 6.64938 15.6773 6.73972C15.6924 6.74976 15.7125 6.75979 15.7325 6.76481ZM1.21532 7.01575C1.21532 7.13621 1.21532 7.21651 1.21532 7.30183C1.21532 10.6142 1.21532 13.9317 1.21532 17.2441C1.21532 18.2429 1.78778 18.805 2.79208 18.81C4.83082 18.81 6.86955 18.81 8.90829 18.81C10.2691 18.81 11.63 18.815 12.9908 18.81C13.8043 18.805 14.447 18.278 14.4671 17.5452C14.4972 16.5515 14.4772 15.5578 14.4772 14.5641C14.4772 14.544 14.4621 14.5239 14.447 14.4787C14.3767 14.544 14.3165 14.5942 14.2612 14.6494C13.8093 15.0961 13.3724 15.5578 12.9104 15.9894C12.7648 16.1249 12.574 16.2403 12.3832 16.2905C11.4341 16.5465 10.475 16.7774 9.52092 17.0183C8.85808 17.1839 8.51159 16.8376 8.6773 16.1751C8.92336 15.2215 9.15435 14.2679 9.41546 13.3194C9.46568 13.1287 9.57615 12.9329 9.71676 12.7924C11.2433 11.2516 12.7849 9.7209 14.3114 8.18012C14.4018 8.08476 14.4721 7.92416 14.4772 7.79367C14.4872 6.10735 14.4872 4.42102 14.4822 2.7347C14.4822 1.78112 13.9047 1.20396 12.9556 1.20396C11.3036 1.20396 9.64645 1.20396 7.99437 1.20396C7.90399 1.20396 7.81862 1.214 7.70815 1.21902C7.70815 1.33445 7.70815 1.42981 7.70815 1.52015C7.70815 2.43859 7.70815 3.35703 7.70815 4.27548C7.70815 4.46117 7.70815 4.64687 7.67802 4.82253C7.45205 6.14248 6.41762 7.01073 5.04172 7.02077C3.88175 7.03081 2.72178 7.02077 1.55679 7.02077C1.45635 7.01575 1.35592 7.01575 1.21532 7.01575ZM16.8021 7.33194C16.7419 7.40722 16.6866 7.49254 16.6163 7.56782C14.8939 9.28928 13.1916 11.0358 11.4341 12.7222C10.8014 13.3294 10.3444 13.9769 10.239 14.8552C10.2089 15.1111 10.1135 15.3621 10.0432 15.6531C10.6809 15.4925 11.2734 15.352 11.8559 15.1964C11.9915 15.1613 12.1321 15.076 12.2325 14.9756C14.216 13.0032 16.1895 11.0258 18.168 9.04838C18.2282 8.98815 18.2885 8.91789 18.3437 8.86268C17.8315 8.35076 17.3394 7.86393 16.8021 7.33194ZM6.50298 1.96682C5.06181 3.25666 3.65578 4.51136 2.24976 5.77109C2.57615 5.82629 2.87745 5.83131 3.17371 5.82629C3.88175 5.82127 4.59481 5.84135 5.30284 5.79618C5.93555 5.75603 6.47285 5.214 6.49294 4.6017C6.52809 3.7485 6.50298 2.89028 6.50298 1.96682ZM19.2476 7.98439C19.3731 7.8539 19.5137 7.71839 19.6443 7.56782C19.8502 7.32692 19.8602 7.00572 19.6493 6.77485C19.4183 6.52391 19.1773 6.27799 18.9262 6.05214C18.6952 5.84637 18.404 5.84135 18.173 6.03206C18.0073 6.16757 17.8667 6.33319 17.7361 6.4687C18.2333 6.97058 18.7254 7.46243 19.2476 7.98439Z" fill="black"/>
<path d="M9.66653 9.25391H3.41473V10.4383H9.66653V9.25391Z" fill="black"/>
<path d="M7.15577 12.4756H3.41473V13.66H7.15577V12.4756Z" fill="black"/>
<path d="M7.15577 15.7031H3.41473V16.8876H7.15577V15.7031Z" fill="black"/>
</svg>
