<svg width="26" height="26" viewBox="0 0 26 26" fill="none" xmlns="http://www.w3.org/2000/svg">
<path d="M19.6043 20.5249C19.3162 20.5249 19.1242 20.7169 19.1242 21.005V21.149C19.1242 21.8692 18.548 22.4454 17.8278 22.4454H6.30464C5.58444 22.4454 5.00828 21.8692 5.00828 21.149V5.30464C4.96027 4.53643 5.53643 3.96027 6.25663 3.96027H12.9305H14.1308H14.4189C14.5149 3.96027 14.6109 4.00828 14.659 4.05629L14.707 4.10431C14.755 4.15232 14.803 4.24835 14.803 4.34437V6.50497C14.803 7.70531 15.7633 8.66557 16.9636 8.66557H18.7881C18.8841 8.66557 18.9802 8.71359 19.0282 8.7616L19.0762 8.80961C19.1242 8.85763 19.1722 8.95365 19.1722 9.04968V11.6424C19.1722 11.9305 19.3643 12.1225 19.6523 12.1225C19.9404 12.1225 20.1325 11.9305 20.1325 11.6424V9.00167C20.1325 8.66557 19.9884 8.37749 19.7964 8.13743L19.7484 8.08941L19.7004 8.0414L15.4272 3.43212C15.1871 3.19205 14.851 3 14.4669 3H14.1788H12.9785H6.25663C5.00828 3 4 4.00828 4 5.25663V21.101C4 22.3494 5.00828 23.3577 6.25663 23.3577H17.7798C19.0282 23.3577 20.0364 22.3494 20.0364 21.101V20.957C20.0845 20.7169 19.8924 20.5249 19.6043 20.5249ZM16.9636 7.65729C16.2914 7.65729 15.7633 7.12915 15.7633 6.45696V5.20861L18.0199 7.65729H16.9636Z" fill="black"/>
<path d="M14.5149 10.6826H8.94537C8.65729 10.6826 8.46524 10.8747 8.46524 11.1628C8.46524 11.4508 8.65729 11.6429 8.94537 11.6429H14.5149C14.803 11.6429 14.9951 11.4508 14.9951 11.1628C14.9951 10.8747 14.755 10.6826 14.5149 10.6826Z" fill="black"/>
<path d="M14.9951 13.7545C14.9951 13.4665 14.803 13.2744 14.5149 13.2744H8.94537C8.65729 13.2744 8.46524 13.4665 8.46524 13.7545C8.46524 14.0426 8.65729 14.2347 8.94537 14.2347H14.5149C14.755 14.2347 14.9951 13.9946 14.9951 13.7545Z" fill="black"/>
<path d="M12.5944 16.7796C12.8825 16.7796 13.0745 16.5875 13.0745 16.2995C13.0745 16.0114 12.8825 15.8193 12.5944 15.8193H8.94537C8.65729 15.8193 8.46524 16.0114 8.46524 16.2995C8.46524 16.5875 8.65729 16.7796 8.94537 16.7796H12.5944Z" fill="black"/>
<path d="M12.1623 7.70572C12.1623 7.41764 11.9702 7.22559 11.6822 7.22559H7.21692C6.92884 7.22559 6.73679 7.41764 6.73679 7.70572C6.73679 7.9938 6.92884 8.18585 7.21692 8.18585H11.6822C11.9702 8.18585 12.1623 7.9938 12.1623 7.70572Z" fill="black"/>
<path d="M7.21692 19.8528H13.6027C13.8908 19.8528 14.0828 19.6608 14.0828 19.3727C14.0828 19.0846 13.8908 18.8926 13.6027 18.8926H7.21692C6.92884 18.8926 6.73679 19.0846 6.73679 19.3727C6.73679 19.6608 6.97685 19.8528 7.21692 19.8528Z" fill="black"/>
<path d="M19.8444 15.2436L18.5 16.588L18.0199 16.1079C17.8278 15.9158 17.5398 15.9158 17.3477 16.1079C17.1557 16.2999 17.1557 16.588 17.3477 16.7801L18.5 17.9324L20.5166 15.9158C20.7086 15.7238 20.7086 15.4357 20.5166 15.2436C20.3245 15.0516 20.0365 15.0516 19.8444 15.2436Z" fill="black"/>
<path d="M7.3129 11.6429C7.57807 11.6429 7.79303 11.4279 7.79303 11.1628C7.79303 10.8976 7.57807 10.6826 7.3129 10.6826C7.04773 10.6826 6.83276 10.8976 6.83276 11.1628C6.83276 11.4279 7.04773 11.6429 7.3129 11.6429Z" fill="black"/>
<path d="M7.3129 14.2347C7.57807 14.2347 7.79303 14.0197 7.79303 13.7545C7.79303 13.4894 7.57807 13.2744 7.3129 13.2744C7.04773 13.2744 6.83276 13.4894 6.83276 13.7545C6.83276 14.0197 7.04773 14.2347 7.3129 14.2347Z" fill="black"/>
<path d="M7.3129 16.7796C7.57807 16.7796 7.79303 16.5646 7.79303 16.2995C7.79303 16.0343 7.57807 15.8193 7.3129 15.8193C7.04773 15.8193 6.83276 16.0343 6.83276 16.2995C6.83276 16.5646 7.04773 16.7796 7.3129 16.7796Z" fill="black"/>
<path d="M18.9322 12.7471C16.9636 12.7471 15.3792 14.3315 15.3792 16.3001C15.3792 18.2686 16.9636 19.853 18.9322 19.853C20.9007 19.853 22.4852 18.2686 22.4852 16.3001C22.4852 14.3315 20.9007 12.7471 18.9322 12.7471ZM18.9322 18.8928C17.4918 18.8928 16.3394 17.7405 16.3394 16.3001C16.3394 14.8597 17.4918 13.7073 18.9322 13.7073C20.3726 13.7073 21.5249 14.8597 21.5249 16.3001C21.5249 17.7405 20.3726 18.8928 18.9322 18.8928Z" fill="black"/>
</svg>
